# xmcd CD database file
#
# Track frame offsets:
#	150
#	22184
#	44919
#	67068
#	84442
#	103545
#	123310
#	143994
#	162974
#	178759
#	192834
#	210232
#	222035
#	234862
#	251443
#	269355
#	289401
#	306584
#	323571
#
# Disc length: 4547 seconds
#
# Revision: 4
# Processed by: cddbd v1.5.2PL0 Copyright (c) Steve Scherf et al.
# Submitted via: CDex 1.70beta2
#
DISCID=1d11c113
DTITLE=Various Artist - スターチャイルド SELECTION II 音楽編[TV作品集] (DISC-01)
DYEAR=2005
DGENRE=Anime
TTITLE0=[SHADOW SKILL -影技-] OP - born Legend - KASUMI
TTITLE1=[SHADOW SKILL -影技-] ED male type - For My Pride - SPIRIT LEVEL
TTITLE2=[SHADOW SKILL -影技-] ED female type - LAST QUARTER - プリンセス プリン
TTITLE3=[それゆけ！宇宙戦艦ヤマモト・ヨーコ] OP - 天使の休息 - 奥井雅美
TTITLE4=[それゆけ！宇宙戦艦ヤマモト・ヨーコ] ED - ルルル - 奥井雅美
TTITLE5=[千年王国３銃士ヴァニーナイツ] ED - question at me - 林原めぐみ
TTITLE6=[仙界伝封神演義] OP - WILL - 米倉千尋
TTITLE7=[仙界伝封神演義] ED - FRIENDS - 米倉千尋
TTITLE8=[メダロット] OP - 知恵と勇気だ！メダロット - 竹内順子
TTITLE9=[メダロット] ED - やっぱり君が好き！ - 仙台エリ
TTITLE10=[デ・ジ・キャラット] OP - only one, NO.1 - 奥井雅美
TTITLE11=[ブースカ！ブースカ！！] OP - ブースカ！ブースカ！！ - 林原めぐみ
TTITLE12=[ブースカ！ブースカ！！] ED　/ 晴れときどき晴れ - 林原めぐみ
TTITLE13=[六門天外モンコレ☆ナイト] OP - Just Fly Away - 米倉千尋
TTITLE14=[六門天外モンコレ☆ナイト] ED - Sweet True Love - 米倉千尋
TTITLE15=[BOYS BE・・・] OP - だいじょうぶ - 前田亜季
TTITLE16=[BOYS BE・・・] ED - みんながいいね - 前田亜季
TTITLE17=[おジャ魔女どれみ＃] OP - おジャ魔女はココにいる - MAHO堂
TTITLE18=[おジャ魔女どれみ＃] ED - 声をきかせて - MAHO堂
EXTD=YEAR: 2005
EXTT0=
EXTT1=
EXTT2=
EXTT3=
EXTT4=
EXTT5=
EXTT6=
EXTT7=
EXTT8=
EXTT9=
EXTT10=
EXTT11=
EXTT12=
EXTT13=
EXTT14=
EXTT15=
EXTT16=
EXTT17=
EXTT18=
PLAYORDER=
